<!-- Frontend/public/favicon.svg -->
<svg xmlns="http://www.w3.org/2000/svg" viewBox="0 0 24 24">
  <path fill="#1976D2" d="M20.57 14.86L22 13.43L20.57 12L18.57 14L14 9.43L16 7.43L14.57 6L13.14 7.43L12 6.29L13.43 4.86L12 3.43L10.57 4.86L9.43 3.71L8 5.14L9.14 6.57L6.29 9.43L4.86 8L3.43 9.43L4.86 10.86L3.71 12L5.14 13.43L6.57 12.29L9.43 15.14L8 16.57L9.43 18L10.86 16.57L12 17.71L10.57 19.14L12 20.57L13.43 19.14L14.57 20.29L16 18.86L14.86 17.43L17.71 14.57L19.14 16L20.57 14.86M7.71 10.57L10.57 7.71L16.29 13.43L13.43 16.29L7.71 10.57Z"/>
</svg>